# xmcd
#
# Track frame offsets: 
#        150
#        17804
#        41271
#        58486
#        77118
#        98671
#        121738
#        145068
#        162765
#        190391
#        209331
#        226409
#        247936
#
# Disc length: 3738 seconds
#
# Revision: 0
# Processed by: cddbd v1.5.1PL2 Copyright (c) Steve Scherf et al.
# Submitted via: ExactAudioCopy v0.95b4
#
DISCID=a70e980d
DTITLE=Matt Minglewood - The Story
DYEAR=2005
DGENRE=Blues
TTITLE0=Ain't Nothing Pretty
TTITLE1=Worse Damn Case of the Blues
TTITLE2=Jealous Man
TTITLE3=Eight Good Reasons
TTITLE4=River of Pain
TTITLE5=Peter and Joy
TTITLE6=Brushed by the Wings of an Angel
TTITLE7=Dorchester
TTITLE8=The Price of Love
TTITLE9=Somewhere Down the Line
TTITLE10=The Story
TTITLE11=Blue River Train
TTITLE12=Patriot Game
EXTD=
EXTT0=
EXTT1=
EXTT2=
EXTT3=
EXTT4=
EXTT5=
EXTT6=
EXTT7=
EXTT8=
EXTT9=
EXTT10=
EXTT11=
EXTT12=
PLAYORDER=
